<?xml version="1.0" encoding="UTF-8"?>
<svg version="1.1" xmlns="http://www.w3.org/2000/svg" width="192" height="192">
<path d="M0 0 C63.36 0 126.72 0 192 0 C192 63.36 192 126.72 192 192 C128.64 192 65.28 192 0 192 C0 128.64 0 65.28 0 0 Z " fill="#0A1526" transform="translate(0,0)"/>
<path d="M0 0 C1.32 0 2.64 0 4 0 C4.12060791 0.89755005 4.12060791 0.89755005 4.24365234 1.81323242 C5.73512516 12.89076913 7.229897 23.96288719 9 35 C11.19080101 31.71379848 11.94966872 28.78119262 13 25 C14 24 14 24 15.85766602 23.88647461 C17.04380493 23.89432983 17.04380493 23.89432983 18.25390625 23.90234375 C19.53491211 23.90717773 19.53491211 23.90717773 20.84179688 23.91210938 C21.73962891 23.92048828 22.63746094 23.92886719 23.5625 23.9375 C24.46419922 23.94201172 25.36589844 23.94652344 26.29492188 23.95117188 C28.53001314 23.96299775 30.76497437 23.9794778 33 24 C32.97679688 23.08476563 32.95359375 22.16953125 32.9296875 21.2265625 C32.91164063 20.03804687 32.89359375 18.84953125 32.875 17.625 C32.85179688 16.44164063 32.82859375 15.25828125 32.8046875 14.0390625 C33 11 33 11 35 9 C38.0625 8.8125 38.0625 8.8125 41 9 C42 10 42 10 42.11352539 13.41821289 C42.11336628 14.93636988 42.10767226 16.45453229 42.09765625 17.97265625 C42.0962413 18.77029892 42.09482635 19.56794159 42.09336853 20.38975525 C42.08775316 22.94737435 42.07519812 25.50490718 42.0625 28.0625 C42.05748698 29.79231645 42.05292373 31.52213426 42.04882812 33.25195312 C42.03777875 37.50133553 42.02050386 41.75065312 42 46 C39.36 46 36.72 46 34 46 C34 41.05 34 36.1 34 31 C28.06 31.33 22.12 31.66 16 32 C14.02 38.93 12.04 45.86 10 53 C8.68 52.67 7.36 52.34 6 52 C5.82609741 50.72938721 5.82609741 50.72938721 5.64868164 49.43310547 C5.21512986 46.26845917 4.78079718 43.10392128 4.34594727 39.93945312 C4.15846315 38.57393571 3.97128373 37.20837642 3.78442383 35.84277344 C3.51465094 33.8716329 3.24366477 31.90065853 2.97265625 29.9296875 C2.81031494 28.74616699 2.64797363 27.56264648 2.48071289 26.34326172 C2.0316264 23.21995527 1.53215675 20.11011457 1 17 C0.88406494 17.65597168 0.76812988 18.31194336 0.64868164 18.98779297 C0.12316081 21.95077449 -0.40710918 24.91288654 -0.9375 27.875 C-1.11990234 28.90753906 -1.30230469 29.94007812 -1.49023438 31.00390625 C-1.66748047 31.99003906 -1.84472656 32.97617188 -2.02734375 33.9921875 C-2.18968506 34.90339355 -2.35202637 35.81459961 -2.51928711 36.75341797 C-3 39 -3 39 -4 41 C-5.32 40.67 -6.64 40.34 -8 40 C-8.50471197 38.23050388 -9.00360685 36.45934777 -9.5 34.6875 C-9.7784375 33.70136719 -10.056875 32.71523437 -10.34375 31.69921875 C-11 29 -11 29 -11 26 C-11.66 26 -12.32 26 -13 26 C-13.144375 26.78375 -13.28875 27.5675 -13.4375 28.375 C-14 31 -14 31 -15 33 C-18.93743833 33.05797565 -22.87476719 33.09358789 -26.8125 33.125 C-27.93205078 33.14175781 -29.05160156 33.15851563 -30.20507812 33.17578125 C-31.27822266 33.18222656 -32.35136719 33.18867187 -33.45703125 33.1953125 C-34.9416687 33.21102295 -34.9416687 33.21102295 -36.45629883 33.22705078 C-39 33 -39 33 -42 31 C-33.64399592 29.89897358 -25.41192037 29.89905696 -17 30 C-16.86722656 29.07960938 -16.73445313 28.15921875 -16.59765625 27.2109375 C-15.94684881 23.71444263 -14.70057987 21.10540672 -13 18 C-12.01 18 -11.02 18 -10 18 C-6.57142857 26.42857143 -6.57142857 26.42857143 -7 31 C-6.34 31 -5.68 31 -5 31 C-4.96132812 30.03126953 -4.96132812 30.03126953 -4.921875 29.04296875 C-4.32577791 19.13962844 -2.1707533 9.65227981 0 0 Z " fill="#079CE7" transform="translate(91,52)"/>
<path d="M0 0 C0.79003418 0.27175049 1.58006836 0.54350098 2.39404297 0.82348633 C3.25916504 1.12279053 4.12428711 1.42209473 5.015625 1.73046875 C6.95026457 2.37706932 8.88517201 3.02286886 10.8203125 3.66796875 C12.84399034 4.35476097 14.86742496 5.04227027 16.890625 5.73046875 C18.4375 6.24480469 18.4375 6.24480469 20.015625 6.76953125 C21.00304687 7.10726562 21.99046875 7.445 23.0078125 7.79296875 C23.89839355 8.09332031 24.78897461 8.39367188 25.70654297 8.703125 C28.09121965 9.7641019 29.4098776 10.68693809 31.015625 12.73046875 C31.30859375 15.2109375 31.30859375 15.2109375 31.203125 17.91796875 C31.16251953 19.26955078 31.16251953 19.26955078 31.12109375 20.6484375 C31.08628906 21.33550781 31.05148438 22.02257812 31.015625 22.73046875 C28.705625 22.40046875 26.395625 22.07046875 24.015625 21.73046875 C24.015625 19.42046875 24.015625 17.11046875 24.015625 14.73046875 C22.75234375 14.47523437 21.4890625 14.22 20.1875 13.95703125 C13.77593273 12.53363319 7.66420548 10.30665007 1.48046875 8.12109375 C0.58972656 7.81429687 -0.30101562 7.5075 -1.21875 7.19140625 C-2.01506836 6.91087402 -2.81138672 6.6303418 -3.63183594 6.34130859 C-7.82376147 5.25286965 -11.16860369 5.5744828 -15.20703125 7.03125 C-15.98449707 7.30533691 -16.76196289 7.57942383 -17.56298828 7.86181641 C-18.76157471 8.29179932 -18.76157471 8.29179932 -19.984375 8.73046875 C-21.56529168 9.26890865 -23.14732318 9.80408678 -24.73046875 10.3359375 C-25.50455078 10.59697266 -26.27863281 10.85800781 -27.07617188 11.12695312 C-27.85025391 11.38798828 -28.62433594 11.64902344 -29.421875 11.91796875 C-30.22302734 12.19060547 -31.02417969 12.46324219 -31.84960938 12.74414062 C-32.61466797 13.00130859 -33.37972656 13.25847656 -34.16796875 13.5234375 C-34.85431396 13.75571045 -35.54065918 13.9879834 -36.24780273 14.22729492 C-37.984375 14.73046875 -37.984375 14.73046875 -39.984375 14.73046875 C-39.984375 23.97046875 -39.984375 33.21046875 -39.984375 42.73046875 C-41.964375 42.73046875 -43.944375 42.73046875 -45.984375 42.73046875 C-47.02055874 36.68185147 -47.23565048 30.73608389 -47.296875 24.60546875 C-47.32587891 23.62964844 -47.35488281 22.65382813 -47.38476562 21.6484375 C-47.39314453 20.70355469 -47.40152344 19.75867188 -47.41015625 18.78515625 C-47.43203003 17.50874268 -47.43203003 17.50874268 -47.4543457 16.20654297 C-46.80357519 12.77791206 -45.44028334 11.18147559 -42.984375 8.73046875 C-40.34643555 7.46020508 -40.34643555 7.46020508 -37.37109375 6.5625 C-36.28763672 6.22669922 -35.20417969 5.89089844 -34.08789062 5.54492188 C-32.96060547 5.21427734 -31.83332031 4.88363281 -30.671875 4.54296875 C-29.55619141 4.20072266 -28.44050781 3.85847656 -27.29101562 3.50585938 C-24.19438807 2.56053442 -21.09141917 1.64086897 -17.984375 0.73046875 C-16.87835938 0.39825317 -16.87835938 0.39825317 -15.75 0.05932617 C-10.14543357 -1.60175238 -5.56052728 -1.93469262 0 0 Z " fill="#545E68" transform="translate(103.984375,36.26953125)"/>
<path d="M0 0 C1.98 0 3.96 0 6 0 C6.40089844 0.90621094 6.80179687 1.81242187 7.21484375 2.74609375 C12.76729696 14.83710522 19.67571925 21.95736966 31.10546875 28.98046875 C34.87920109 30.30967812 36.41720051 29.66020536 40 28 C48.17847023 23.47545921 54.02585183 17.02915732 60 10 C61.32 10.99 62.64 11.98 64 13 C62.9248504 19.99649591 56.24548322 25.28537059 50.91015625 29.359375 C38.30421352 37.89838194 38.30421352 37.89838194 32.07421875 36.72265625 C20.18599504 32.58080806 10.2898111 22.76692071 3.875 12.25 C3.48425293 11.61191406 3.09350586 10.97382812 2.69091797 10.31640625 C0.63825144 6.75434373 -0.48870721 4.1303642 0 0 Z " fill="#56606A" transform="translate(61,88)"/>
<path d="M0 0 C2.5 0.125 2.5 0.125 3.5 1.125 C3.58748207 3.05167507 3.60697334 4.98151861 3.59765625 6.91015625 C3.59443359 8.07998047 3.59121094 9.24980469 3.58789062 10.45507812 C3.57951172 11.68677734 3.57113281 12.91847656 3.5625 14.1875 C3.55798828 15.42306641 3.55347656 16.65863281 3.54882812 17.93164062 C3.53699608 20.99614117 3.52051173 24.06054721 3.5 27.125 C1.19 27.125 -1.12 27.125 -3.5 27.125 C-3.52886537 22.81251391 -3.54675255 18.50005238 -3.5625 14.1875 C-3.57087891 12.95580078 -3.57925781 11.72410156 -3.58789062 10.45507812 C-3.59111328 9.28525391 -3.59433594 8.11542969 -3.59765625 6.91015625 C-3.60289307 5.82613525 -3.60812988 4.74211426 -3.61352539 3.62524414 C-3.46053674 0.25587483 -3.36785946 0.16839297 0 0 Z " fill="#545E67" transform="translate(138.5,65.875)"/>
<path d="M0 0 C2 1.125 2 1.125 3 3 C3.54068562 6.63031776 3.46379841 8.32214079 1.375 11.375 C-1.71186432 13.48706506 -3.3282913 13.61195145 -7 13 C-9.375 11.375 -9.375 11.375 -11 9 C-11.44912849 5.85610056 -11.504106 3.94519875 -10 1.125 C-6.78179676 -0.68523932 -3.59783102 -0.53967465 0 0 Z " fill="#0A97DE" transform="translate(70,133)"/>
<path d="M0 0 C0.99 0 1.98 0 3 0 C3 3.3 3 6.6 3 10 C5.3203125 9.7215625 5.3203125 9.7215625 7.6875 9.4375 C11.35479593 9.06296765 14.42111097 8.92633329 18 10 C18 9.34 18 8.68 18 8 C17.030625 7.855625 16.06125 7.71125 15.0625 7.5625 C12 7 12 7 11 6 C10.875 3.5 10.875 3.5 11 1 C12 0 12 0 13.84765625 -0.09765625 C15.8984375 -0.06510417 17.94921875 -0.03255208 20 0 C20 0.99 20 1.98 20 3 C18.35 3 16.7 3 15 3 C17.8684413 5.10232344 17.8684413 5.10232344 21 6 C21.125 8.375 21.125 8.375 21 11 C19 13 19 13 17.02880859 13.22705078 C16.24328613 13.21657715 15.45776367 13.20610352 14.6484375 13.1953125 C13.79765625 13.18886719 12.946875 13.18242187 12.0703125 13.17578125 C10.73613281 13.15064453 10.73613281 13.15064453 9.375 13.125 C8.02921875 13.11146484 8.02921875 13.11146484 6.65625 13.09765625 C4.43738678 13.07405132 2.2186603 13.03817962 0 13 C0 8.71 0 4.42 0 0 Z " fill="#0B9AE2" transform="translate(119,133)"/>
<path d="M0 0 C0.99 0 1.98 0 3 0 C6.42857143 8.42857143 6.42857143 8.42857143 6 13 C5.01 13.33 4.02 13.66 3 14 C2.67 12.02 2.34 10.04 2 8 C1.34 8 0.68 8 0 8 C-0.144375 8.78375 -0.28875 9.5675 -0.4375 10.375 C-1 13 -1 13 -2 15 C-5.93743833 15.05797565 -9.87476719 15.09358789 -13.8125 15.125 C-14.93205078 15.14175781 -16.05160156 15.15851563 -17.20507812 15.17578125 C-18.27822266 15.18222656 -19.35136719 15.18867187 -20.45703125 15.1953125 C-21.9416687 15.21102295 -21.9416687 15.21102295 -23.45629883 15.22705078 C-26 15 -26 15 -29 13 C-20.64399592 11.89897358 -12.41192037 11.89905696 -4 12 C-3.86722656 11.07960938 -3.73445313 10.15921875 -3.59765625 9.2109375 C-2.94684881 5.71444263 -1.70057987 3.10540672 0 0 Z " fill="#0A92D9" transform="translate(78,70)"/>
<path d="M0 0 C1.60875 -0.04125 3.2175 -0.0825 4.875 -0.125 C5.77992187 -0.14820313 6.68484375 -0.17140625 7.6171875 -0.1953125 C10 0 10 0 12 2 C12.125 4.375 12.125 4.375 12 7 C12 8.32 12 9.64 12 11 C12 11.66 12 12.32 12 13 C8 13 8 13 6.25 11.5 C5.8375 11.005 5.425 10.51 5 10 C5 10.99 5 11.98 5 13 C3.35 13 1.7 13 0 13 C0 8.71 0 4.42 0 0 Z " fill="#0C6699" transform="translate(45,133)"/>
<path d="M0 0 C5 1 5 1 6.8125 3.0625 C7.204375 3.701875 7.59625 4.34125 8 5 C8.33 3.35 8.66 1.7 9 0 C10.32 0 11.64 0 13 0 C13 4.29 13 8.58 13 13 C11.68 13 10.36 13 9 13 C6.75 10.5 6.75 10.5 5 8 C4.67 9.65 4.34 11.3 4 13 C2.68 13 1.36 13 0 13 C0 8.71 0 4.42 0 0 Z " fill="#0A92D8" transform="translate(75,133)"/>
<path d="M0 0 C3.63 0 7.26 0 11 0 C11 0.99 11 1.98 11 3 C8.69 3 6.38 3 4 3 C4 3.66 4 4.32 4 5 C5.98 5 7.96 5 10 5 C10 5.99 10 6.98 10 8 C8.02 8 6.04 8 4 8 C4 8.66 4 9.32 4 10 C6.31 10 8.62 10 11 10 C11 10.99 11 11.98 11 13 C7.37 13 3.74 13 0 13 C0 8.71 0 4.42 0 0 Z " fill="#0C8DCF" transform="translate(142,133)"/>
<path d="M0 0 C6.8359375 -0.1953125 6.8359375 -0.1953125 9 0 C11 2 11 2 11.25 4.5 C11 7 11 7 9 9 C5.875 9.125 5.875 9.125 3 9 C3 9.99 3 10.98 3 12 C2.01 12 1.02 12 0 12 C0 8.04 0 4.08 0 0 Z " fill="#0A74AD" transform="translate(91,133)"/>
<path d="M0 0 C1.32 0 2.64 0 4 0 C4 3.3 4 6.6 4 10 C5.32 9.67 6.64 9.34 8 9 C8.33 6.03 8.66 3.06 9 0 C9.99 0 10.98 0 12 0 C12.08121924 1.60332791 12.13929134 3.20784026 12.1875 4.8125 C12.22230469 5.70582031 12.25710937 6.59914062 12.29296875 7.51953125 C12 10 12 10 10.67578125 11.80078125 C8.08125093 13.65747311 6.09404418 13.38675552 3 13 C1.32421875 11.80078125 1.32421875 11.80078125 0 10 C-0.29296875 7.51953125 -0.29296875 7.51953125 -0.1875 4.8125 C-0.16042969 3.91144531 -0.13335937 3.01039063 -0.10546875 2.08203125 C-0.07066406 1.39496094 -0.03585938 0.70789063 0 0 Z " fill="#0A95DA" transform="translate(104,133)"/>
<path d="M0 0 C6.8359375 -0.1953125 6.8359375 -0.1953125 9 0 C11 2 11 2 11.125 4.625 C11.08375 5.40875 11.0425 6.1925 11 7 C10.01 6.67 9.02 6.34 8 6 C8 5.01 8 4.02 8 3 C6.35 3 4.7 3 3 3 C3 4.32 3 5.64 3 7 C3.66 7.33 4.32 7.66 5 8 C4.34 9.32 3.68 10.64 3 12 C2.01 12 1.02 12 0 12 C0 8.04 0 4.08 0 0 Z " fill="#09A4F1" transform="translate(46,133)"/>
<path d="M0 0 C1.27875 -0.061875 2.5575 -0.12375 3.875 -0.1875 C4.95394531 -0.23970703 4.95394531 -0.23970703 6.0546875 -0.29296875 C6.69664062 -0.19628906 7.33859375 -0.09960938 8 0 C8.66 0.99 9.32 1.98 10 3 C10.66 2.34 11.32 1.68 12 1 C12 2.98 12 4.96 12 7 C11.34 7 10.68 7 10 7 C9.67 6.34 9.34 5.68 9 5 C8.67 5.66 8.34 6.32 8 7 C5.33333333 7 2.66666667 7 0 7 C0 4.69 0 2.38 0 0 Z " fill="#313A47" transform="translate(125,150)"/>
<path d="M0 0 C1.32 0 2.64 0 4 0 C4 4.29 4 8.58 4 13 C2.68 13 1.36 13 0 13 C0 8.71 0 4.42 0 0 Z " fill="#0C90D4" transform="translate(39,133)"/>
<path d="M0 0 C2.31 0.33 4.62 0.66 7 1 C5.68 1.33 4.36 1.66 3 2 C3 3.65 3 5.3 3 7 C4.32 7 5.64 7 7 7 C7 7.66 7 8.32 7 9 C5.68 9 4.36 9 3 9 C3 9.99 3 10.98 3 12 C2.01 12 1.02 12 0 12 C0 8.04 0 4.08 0 0 Z " fill="#08A5F2" transform="translate(91,133)"/>
<path d="M0 0 C0.99 0 1.98 0 3 0 C3 3.3 3 6.6 3 10 C4.98 10 6.96 10 9 10 C9 10.66 9 11.32 9 12 C6.03 12 3.06 12 0 12 C0 8.04 0 4.08 0 0 Z " fill="#08A3EF" transform="translate(119,133)"/>
<path d="M0 0 C0.99 0 1.98 0 3 0 C3.08121924 1.60332791 3.13929134 3.20784026 3.1875 4.8125 C3.22230469 5.70582031 3.25710937 6.59914062 3.29296875 7.51953125 C3 10 3 10 1.6875 11.8125 C-0.82482663 13.58043356 -3.0172413 13.19885058 -6 13 C-4 10 -4 10 -1 9 C-0.67 6.03 -0.34 3.06 0 0 Z " fill="#0A9DE7" transform="translate(113,133)"/>
<path d="M0 0 C1.32 0 2.64 0 4 0 C4.33 1.32 4.66 2.64 5 4 C5.66 4 6.32 4 7 4 C7 4.66 7 5.32 7 6 C5.35 6.33 3.7 6.66 2 7 C1.67 6.34 1.34 5.68 1 5 C0.67 5.66 0.34 6.32 0 7 C-0.66 7 -1.32 7 -2 7 C-2.66 5.02 -3.32 3.04 -4 1 C-3.01 1.33 -2.02 1.66 -1 2 C-0.67 1.34 -0.34 0.68 0 0 Z " fill="#313A47" transform="translate(60,150)"/>
<path d="M0 0 C1.32 0 2.64 0 4 0 C3.34 5.28 2.68 10.56 2 16 C1.67 16 1.34 16 1 16 C0.67 14.35 0.34 12.7 0 11 C-0.33 11 -0.66 11 -1 11 C-0.67 7.37 -0.34 3.74 0 0 Z " fill="#0B95DC" transform="translate(88,66)"/>
<path d="M0 0 C0.33 0.99 0.66 1.98 1 3 C-1.60444348 3.05394705 -4.20776998 3.09364469 -6.8125 3.125 C-7.55048828 3.14175781 -8.28847656 3.15851563 -9.04882812 3.17578125 C-12.91246426 3.21074628 -14.70903668 3.19397555 -18 1 C-11.96445452 0.30739642 -6.07593562 -0.11251733 0 0 Z " fill="#0D78B1" transform="translate(67,82)"/>
<path d="M0 0 C1.67542976 0.28604898 3.34385343 0.61781233 5 1 C5 2.65 5 4.3 5 6 C3.34385343 6.38218767 1.67542976 6.71395102 0 7 C-1 6 -1 6 -1.125 3.5 C-1 1 -1 1 0 0 Z " fill="#08182C" transform="translate(64,136)"/>
<path d="M0 0 C1.125 3.75 1.125 3.75 0 6 C-1.2375 6.04125 -2.475 6.0825 -3.75 6.125 C-4.79414062 6.15980469 -4.79414062 6.15980469 -5.859375 6.1953125 C-8.30155975 5.97248542 -9.88636771 5.20915 -12 4 C-10.95199219 3.81824219 -10.95199219 3.81824219 -9.8828125 3.6328125 C-8.51769531 3.38144531 -8.51769531 3.38144531 -7.125 3.125 C-5.76761719 2.88136719 -5.76761719 2.88136719 -4.3828125 2.6328125 C-1.83494012 2.16955297 -1.83494012 2.16955297 0 0 Z " fill="#069DE9" transform="translate(76,79)"/>
<path d="M0 0 C0.99 0.33 1.98 0.66 3 1 C3 1.66 3 2.32 3 3 C3.66 3 4.32 3 5 3 C5.33 2.01 5.66 1.02 6 0 C6.66 0 7.32 0 8 0 C8 1.98 8 3.96 8 6 C7.236875 5.814375 6.47375 5.62875 5.6875 5.4375 C2.91032625 4.77180827 2.91032625 4.77180827 0 6 C0 4.02 0 2.04 0 0 Z " fill="#3F4953" transform="translate(116,151)"/>
<path d="M0 0 C3 1.1875 3 1.1875 5 3.1875 C-1.27 3.1875 -7.54 3.1875 -14 3.1875 C-14 2.8575 -14 2.5275 -14 2.1875 C-11.03 2.1875 -8.06 2.1875 -5 2.1875 C-5 1.5275 -5 0.8675 -5 0.1875 C-3 -0.8125 -3 -0.8125 0 0 Z " fill="#0D7EBA" transform="translate(133,142.8125)"/>
<path d="M0 0 C1.9375 0.8125 1.9375 0.8125 4 2 C4.33 2.99 4.66 3.98 5 5 C4.01 6.485 4.01 6.485 3 8 C2.34 8 1.68 8 1 8 C0.896875 7.38125 0.79375 6.7625 0.6875 6.125 C0.12474627 3.63473516 0.12474627 3.63473516 -3 2 C-2.01 2 -1.02 2 0 2 C0 1.34 0 0.68 0 0 Z " fill="#0B8ED1" transform="translate(68,133)"/>
<path d="M0 0 C1.65 0 3.3 0 5 0 C4.67 1.32 4.34 2.64 4 4 C3.34 4 2.68 4 2 4 C2 4.66 2 5.32 2 6 C2.99 6.33 3.98 6.66 5 7 C3.35 7 1.7 7 0 7 C0 4.69 0 2.38 0 0 Z " fill="#404A54" transform="translate(110,150)"/>
<path d="M0 0 C1.98 0.99 1.98 0.99 4 2 C4.66 1.34 5.32 0.68 6 0 C6 1.98 6 3.96 6 6 C5.34 6 4.68 6 4 6 C3.67 5.34 3.34 4.68 3 4 C2.67 4.66 2.34 5.32 2 6 C1.34 6 0.68 6 0 6 C0 4.02 0 2.04 0 0 Z " fill="#48515A" transform="translate(131,151)"/>
<path d="M0 0 C1.98 0.99 1.98 0.99 4 2 C4.66 1.34 5.32 0.68 6 0 C6 1.98 6 3.96 6 6 C5.34 6 4.68 6 4 6 C3.67 5.34 3.34 4.68 3 4 C2.67 4.66 2.34 5.32 2 6 C1.34 6 0.68 6 0 6 C0 4.02 0 2.04 0 0 Z " fill="#454E58" transform="translate(89,151)"/>
<path d="M0 0 C2.375 -0.125 2.375 -0.125 5 0 C7 2 7 2 7.125 4.625 C7.08375 5.40875 7.0425 6.1925 7 7 C6.01 6.67 5.02 6.34 4 6 C4 5.01 4 4.02 4 3 C2.35 3 0.7 3 -1 3 C-0.67 2.01 -0.34 1.02 0 0 Z " fill="#0B95DB" transform="translate(50,133)"/>
<path d="M0 0 C0.99 0.33 1.98 0.66 3 1 C4.1875 3.5625 4.1875 3.5625 5 6 C2.69 6 0.38 6 -2 6 C-1.34 4.02 -0.68 2.04 0 0 Z " fill="#424B56" transform="translate(98,151)"/>
<path d="M0 0 C0.99 0.33 1.98 0.66 3 1 C3.33 2.65 3.66 4.3 4 6 C2.02 6 0.04 6 -2 6 C-1.125 1.125 -1.125 1.125 0 0 Z " fill="#404A54" transform="translate(84,151)"/>
<path d="M0 0 C0.99 0.33 1.98 0.66 3 1 C3 1.66 3 2.32 3 3 C3.66 3 4.32 3 5 3 C5 3.66 5 4.32 5 5 C3.35 5.33 1.7 5.66 0 6 C0 4.02 0 2.04 0 0 Z " fill="#424A55" transform="translate(62,151)"/>
<path d="M0 0 C1.125 3.75 1.125 3.75 0 6 C-1.98 5.34 -3.96 4.68 -6 4 C-5.67 3.34 -5.34 2.68 -5 2 C-3.35 2.33 -1.7 2.66 0 3 C0 2.01 0 1.02 0 0 Z " fill="#0B3859" transform="translate(139,133)"/>
<path d="M0 0 C0.99 0.33 1.98 0.66 3 1 C3 2.65 3 4.3 3 6 C2.01 6.33 1.02 6.66 0 7 C0 4.69 0 2.38 0 0 Z " fill="#0990D6" transform="translate(144,76)"/>
<path d="M0 0 C0 1.98 0 3.96 0 6 C-1.65 5.67 -3.3 5.34 -5 5 C-5 3 -5 3 -3.625 1.375 C-2 0 -2 0 0 0 Z " fill="#434C56" transform="translate(81,151)"/>
</svg>
